<svg version="1.2" xmlns="http://www.w3.org/2000/svg" viewBox="0 0 52 40" width="52" height="40">
	<title>logo-branco-svg</title>
	<style>
		.s0 { fill: #ffffff } 
	</style>
	<g id="Layer">
		<path id="Caminho_748" class="s0" d="m37.9 23.9l9.8-3.9c0 9.9-7.9 18-17.8 18.3-10.1 0.2-18.6-7.8-18.8-17.9-0.2-10.1 7.8-18.6 17.9-18.8 10.2-0.1 18.6 8 18.6 18.3l-9.8-3.9c-1.4-3.1-4.5-5.3-8.1-5.5-5.1-0.2-9.6 3.8-9.8 9-0.2 5.2 3.8 9.6 9 9.8 3.9 0.1 7.3-2.1 8.9-5.4 0.6-1.2 1-2.6 1-4 0 1.4-0.3 2.7-0.9 4z"/>
		<path id="Layer" class="s0" d="m38.8 18.9c0 0.3 0.1 0.7 0.1 1 0 1.3-0.3 2.7-0.9 3.9h-0.1l-4.4 1.7v-11.3l4.4 1.8h0.1c0.2 0.5 0.4 0.9 0.5 1.4q0.2 0.8 0.3 1.5z"/>
		<path id="Layer" class="s0" d="m47.8 19.9l-0.1 0.1v-0.1z"/>
		<path id="Layer" class="s0" d="m38 16c0.2 0.5 0.4 0.9 0.5 1.4-0.2-0.5-0.4-1-0.5-1.4z"/>
		<path id="Layer" class="s0" d="m38.8 18.9c0-0.5-0.2-1-0.3-1.5q0.2 0.8 0.3 1.5z"/>
		<path id="Caminho_751" class="s0" d="m12.4 11.1h-2.4c-0.4 0-0.9 0-1.4 0-0.9 0-1.8-0.3-2.6-0.9-0.9-0.7-1.5-1.7-1.7-2.7-0.1-0.3-0.1-0.6-0.1-0.9q0-2.4 0-4.8c0-0.2 0.1-0.2 0.2-0.2 5.3 0 10.7 0 16 0q1.5 0 3 0h5.6c-6.9 0-13.2 3.6-16.6 9.5z"/>
		<g id="Grupo_389">
			<g id="Grupo_387">
				<path id="Caminho_752" fill-rule="evenodd" class="s0" d="m56.8 33.6c-0.3 0-0.5-0.1-0.8-0.2-0.3-0.1-0.5-0.3-0.6-0.5h-0.1c0 0.3 0.1 0.5 0.1 0.8v1.9h-0.6v-6.7h0.5l0.1 0.6q0.3-0.3 0.6-0.6c0.3-0.1 0.5-0.2 0.8-0.2 0.5 0 1.1 0.2 1.5 0.6 0.6 1.1 0.6 2.5 0 3.5-0.4 0.6-0.9 0.8-1.5 0.8zm0-4.2c-0.5 0-0.9 0.1-1 0.4-0.2 0.4-0.5 0.8-0.4 1.3v0.2c0 0.5 0.1 1 0.4 1.4 0.3 0.3 0.6 0.5 1 0.4 0.4 0 0.6-0.2 0.9-0.5 0.1-0.4 0.4-0.9 0.3-1.3 0-0.5-0.1-0.9-0.3-1.3-0.2-0.5-0.6-0.6-0.9-0.6z"/>
				<path id="Caminho_753" class="s0" d="m61 33.5h-0.7v-6.6h0.7z"/>
				<path id="Caminho_754" class="s0" d="m63.5 28.9v3c0 0.3 0.1 0.6 0.3 0.8 0.2 0.2 0.5 0.3 0.9 0.3 0.4 0 0.8-0.1 1.1-0.4 0.3-0.4 0.4-0.8 0.3-1.3v-2.4h0.6v4.6h-0.5l-0.1-0.6c-0.1 0.2-0.4 0.4-0.6 0.5-0.3 0.1-0.6 0.2-0.9 0.2-0.5 0-0.9-0.1-1.4-0.4-0.3-0.4-0.5-0.8-0.4-1.3v-3z"/>
				<path id="Caminho_755" fill-rule="evenodd" class="s0" d="m72.3 28.9v0.4l-0.9 0.1q0.3 0.5 0.4 0.9c0 0.4-0.2 0.8-0.5 1.1-0.5 0.3-0.9 0.4-1.4 0.4-0.1 0-0.3 0-0.4 0-0.3 0.1-0.4 0.3-0.4 0.6 0 0.1 0.1 0.2 0.2 0.3 0.2 0.1 0.4 0.1 0.5 0.1h0.8q0.7 0 1.2 0.3c0.3 0.2 0.4 0.6 0.4 0.9q0 0.8-0.6 1.2c-0.6 0.3-1.2 0.4-1.8 0.4-0.5 0-1-0.1-1.4-0.3-0.3-0.2-0.5-0.6-0.5-1 0-0.3 0.1-0.5 0.3-0.7 0.2-0.2 0.5-0.4 0.8-0.4-0.1-0.1-0.2-0.1-0.3-0.3-0.1-0.1-0.1-0.3-0.1-0.4 0-0.2 0-0.3 0.1-0.4 0.1-0.2 0.3-0.3 0.4-0.4-0.2-0.1-0.4-0.3-0.6-0.5-0.2-0.2-0.2-0.5-0.2-0.8 0-0.4 0.1-0.9 0.5-1.2 0.5-0.3 0.9-0.4 1.4-0.4 0.1 0 0.4 0 0.6 0.1zm-3.7 5.4c0 0.2 0.1 0.5 0.3 0.6 0.4 0.1 0.6 0.2 0.9 0.2 0.5 0 1-0.1 1.4-0.3 0.3-0.1 0.4-0.4 0.4-0.7 0-0.2-0.1-0.4-0.2-0.5-0.3-0.1-0.6-0.2-0.9-0.1h-0.8c-0.4 0-0.5 0.1-0.7 0.2q-0.4 0.2-0.4 0.6zm0.4-3.9c0 0.3 0.1 0.5 0.3 0.7 0.2 0.2 0.5 0.3 0.9 0.3 0.5 0.1 0.9-0.3 1-0.8q0-0.1 0-0.3c0.1-0.5-0.4-1-0.9-1q-0.1 0-0.3 0c-0.3 0-0.6 0.1-0.8 0.3-0.1 0.2-0.2 0.5-0.2 0.8z"/>
				<path id="Caminho_756" class="s0" d="m75.1 33.1c0-0.2 0-0.3 0.1-0.4 0.1-0.1 0.2-0.2 0.4-0.1 0.1 0 0.3 0 0.4 0.1 0.1 0.1 0.1 0.3 0.1 0.4 0 0.2 0 0.3-0.1 0.4-0.2 0.2-0.5 0.2-0.7 0-0.2-0.1-0.2-0.3-0.2-0.4z"/>
				<path id="Caminho_757" class="s0" d="m80.6 33c0.1 0 0.2 0 0.4 0 0.1 0 0.2 0 0.3-0.1v0.5c0 0-0.1 0.1-0.3 0.1-0.1 0-0.3 0-0.4 0-0.9 0-1.3-0.5-1.3-1.4v-2.8h-0.7v-0.3l0.7-0.3 0.3-1h0.4v1.1h1.4v0.5h-1.4v2.7c0 0.2 0.1 0.5 0.2 0.6 0.1 0.3 0.2 0.4 0.4 0.4z"/>
				<path id="Caminho_758" class="s0" d="m85.8 33.5v-3c0-0.3-0.1-0.6-0.4-0.8-0.1-0.2-0.5-0.3-0.8-0.3-0.4 0-0.8 0.1-1.1 0.4-0.3 0.4-0.4 0.8-0.3 1.3v2.4h-0.7v-6.6h0.7v2q0 0.3 0 0.6c0.1-0.2 0.3-0.4 0.6-0.5 0.3-0.1 0.6-0.2 0.9-0.2 0.5 0 0.9 0.1 1.3 0.4 0.3 0.4 0.5 0.8 0.4 1.3v3z"/>
				<path id="Caminho_759" class="s0" d="m88.1 27.6c0-0.1 0-0.3 0.1-0.4q0.3-0.3 0.6 0c0.1 0.1 0.1 0.2 0.1 0.4 0 0.1 0 0.3-0.1 0.4q-0.3 0.3-0.6 0c-0.1-0.1-0.1-0.3-0.1-0.4zm0.8 5.9h-0.6v-4.6h0.6z"/>
				<path id="Caminho_760" class="s0" d="m93.9 33.5v-3c0-0.3-0.1-0.6-0.3-0.8-0.2-0.2-0.5-0.3-0.8-0.3-0.4 0-0.8 0.1-1.1 0.4-0.3 0.4-0.4 0.8-0.3 1.3v2.4h-0.7v-4.6h0.6l0.1 0.6c0.1-0.2 0.4-0.4 0.6-0.5 0.3-0.1 0.6-0.2 0.9-0.2 0.5 0 0.9 0.1 1.3 0.4 0.3 0.4 0.5 0.8 0.4 1.3v3z"/>
				<path id="Caminho_761" class="s0" d="m97.1 31.1c0.2-0.2 0.4-0.5 0.6-0.7l1.5-1.6h0.8l-1.9 2 2 2.7h-0.9l-1.6-2.2-0.5 0.5v1.7h-0.7v-6.6h0.7v3.5c0 0.2 0 0.4 0 0.7z"/>
				<path id="Caminho_762" class="s0" d="m102.8 33.1c0-0.2 0-0.3 0-0.4 0.1-0.1 0.2-0.2 0.5-0.1 0 0 0.3 0 0.4 0.1 0.1 0.1 0.1 0.3 0.1 0.4 0 0.2 0 0.3-0.1 0.4-0.2 0.2-0.5 0.2-0.7 0-0.2-0.1-0.2-0.3-0.2-0.4z"/>
				<path id="Caminho_763" fill-rule="evenodd" class="s0" d="m108.9 33.6c-0.3 0-0.6-0.1-0.8-0.2-0.3-0.1-0.5-0.3-0.6-0.5h-0.1c0 0.3 0 0.5 0.1 0.8v1.9h-0.7v-6.7h0.6l0.1 0.6q0.3-0.3 0.6-0.6c0.3-0.1 0.5-0.2 0.8-0.2 0.5 0 1.1 0.2 1.4 0.6 0.7 1.1 0.7 2.5 0 3.5-0.3 0.6-0.9 0.8-1.4 0.8zm-0.1-4.2c-0.4 0-0.8 0.1-1 0.4-0.2 0.4-0.4 0.8-0.3 1.3v0.2c0 0.5 0.1 1 0.3 1.4 0.3 0.3 0.7 0.5 1 0.4 0.4 0 0.7-0.2 0.9-0.5 0.2-0.4 0.4-0.9 0.4-1.3 0-0.5-0.1-0.9-0.4-1.3-0.2-0.5-0.5-0.6-0.9-0.6z"/>
				<path id="Caminho_764" class="s0" d="m113.1 33.5h-0.7v-6.6h0.7z"/>
				<path id="Caminho_765" fill-rule="evenodd" class="s0" d="m117.8 33.5v-0.7c-0.2 0.2-0.5 0.5-0.7 0.6-0.3 0.1-0.6 0.2-0.9 0.2-0.4 0-0.9-0.1-1.1-0.4-0.3-0.3-0.4-0.6-0.4-1 0-0.9 0.8-1.4 2.3-1.5h0.8v-0.3c0-0.3-0.1-0.6-0.2-0.8-0.2-0.2-0.5-0.3-0.8-0.3-0.5 0-0.9 0.1-1.3 0.4l-0.2-0.5c0.2-0.1 0.5-0.2 0.8-0.3 0.3-0.1 0.5-0.1 0.8-0.1 0.4 0 0.9 0.1 1.2 0.4 0.3 0.3 0.4 0.8 0.4 1.2v3.2zm-1.6-0.5c0.4 0 0.7-0.1 1-0.4 0.3-0.3 0.4-0.6 0.4-1v-0.4h-0.7q-0.6 0-1.2 0.3c-0.2 0.2-0.4 0.4-0.4 0.7 0 0.2 0.1 0.4 0.2 0.6 0.2 0.2 0.5 0.2 0.7 0.2z"/>
				<path id="Caminho_766" class="s0" d="m119.4 28.9h0.8l1 2.7c0.2 0.4 0.4 0.9 0.4 1.3 0-0.1 0.1-0.4 0.2-0.7 0.1-0.3 0.5-1.4 1.2-3.2h0.8l-2 5.3c-0.1 0.4-0.4 0.8-0.7 1.1-0.3 0.2-0.5 0.3-1 0.3-0.1 0-0.4 0-0.5-0.1v-0.6c0.1 0 0.3 0.1 0.5 0.1 0.5 0 0.9-0.3 1-0.8l0.3-0.7z"/>
			</g>
			<g id="Grupo_388">
				<path id="Caminho_767" class="s0" d="m64.1 23.3c-1.3 0.7-2.7 1-4.1 1-2.7 0.2-5-1.8-5.2-4.4 0-0.2 0-0.5 0-0.7v-14h5v4.3h4v3.4h-4v5.6c0 1.3 0.6 1.9 1.5 1.9 0.6 0 1.2-0.2 1.8-0.5z"/>
				<path id="Caminho_768" fill-rule="evenodd" class="s0" d="m77.3 18.6l2.9 2.6c-1.7 2.1-4.4 3.2-7.1 3.1-5 0-8.3-3.1-8.3-7.8 0-4.7 3.1-7.9 8-8 4.6 0 7.7 2.8 7.8 7.4l-10.3 2.5c0.5 1.3 1.8 2.2 3.2 2.1 1.5-0.1 2.9-0.8 3.8-1.9zm-7.4-3l5.7-1.4c-0.2-1.2-1.3-2.1-2.6-2-1.8-0.1-3 1.1-3.1 3.4z"/>
				<path id="Caminho_769" class="s0" d="m92.5 8.5v4.6c-2.8-0.3-4.7 1-5 3.1v7.9h-5.1v-15.4h5.1v2.6c1-1.8 2.9-2.9 5-2.8z"/>
				<path id="Caminho_770" fill-rule="evenodd" class="s0" d="m109.7 16.4c0 4.8-3.4 7.9-8.4 7.9-5.1 0-8.4-3.1-8.4-7.9 0-4.7 3.3-7.9 8.4-7.9 5.1 0 8.4 3.2 8.4 7.9zm-11.7 0c0 2.3 1.3 3.8 3.3 3.8 2 0 3.3-1.5 3.3-3.8 0-2.3-1.3-3.8-3.3-3.8-2 0-3.3 1.6-3.3 3.8z"/>
				<path id="Caminho_771" class="s0" d="m117.1 12c-0.9 0-1.5 0.3-1.5 1 0 2 8.1 1.1 8.1 6.4 0 3.2-2.8 5-6.5 5-2.5 0.1-4.9-0.7-7-2.2l1.6-3.3c1.6 1.2 3.5 1.8 5.5 1.9 0.9 0 1.6-0.3 1.6-0.9 0-2.1-8-1.1-8-6.4 0-3.2 2.7-5 6.3-5 2.3 0 4.5 0.6 6.4 1.8l-1.7 3.3c-1.4-0.9-3-1.4-4.8-1.6z"/>
			</g>
		</g>
	</g>
</svg>